<svg viewBox="0 0 32 32" fill="none" xmlns="http://www.w3.org/2000/svg">
<path d="M23.5087 4.24467C23.4518 4.21149 23.3889 4.18984 23.3236 4.18096C23.2583 4.17208 23.192 4.17615 23.1283 4.19292C23.0646 4.2097 23.0048 4.23886 22.9524 4.27874C22.8999 4.31861 22.8559 4.36843 22.8227 4.42533C22.7557 4.54026 22.7371 4.6771 22.7709 4.80575C22.8048 4.9344 22.8884 5.04432 23.0033 5.11133C25.8017 6.73995 27.944 9.29395 29.0609 12.3329C30.1778 15.3719 30.1993 18.7054 29.1216 21.7585C28.044 24.8117 25.9347 27.3931 23.1576 29.0576C20.3805 30.7221 17.1096 31.3654 13.909 30.8766C10.7084 30.3878 7.77866 28.7975 5.62501 26.3799C3.47136 23.9623 2.22881 20.869 2.11161 17.6334C1.99442 14.3978 3.00993 11.2227 4.98303 8.6556C6.95613 6.08854 9.76314 4.29043 12.92 3.57133C13.0709 4.20497 13.4307 4.76937 13.9414 5.17365C14.4521 5.57793 15.084 5.79856 15.7353 5.8H18.1353C18.268 5.8 18.3951 5.74732 18.4889 5.65355C18.5827 5.55979 18.6353 5.43261 18.6353 5.3V4.48267H20.384C20.5166 4.48267 20.6438 4.42999 20.7376 4.33622C20.8313 4.24245 20.884 4.11528 20.884 3.98267C20.884 3.85006 20.8313 3.72288 20.7376 3.62911C20.6438 3.53535 20.5166 3.48267 20.384 3.48267H18.636V2.318H20.3847C20.5173 2.318 20.6445 2.26532 20.7382 2.17155C20.832 2.07779 20.8847 1.95061 20.8847 1.818C20.8847 1.68539 20.832 1.55821 20.7382 1.46445C20.6445 1.37068 20.5173 1.318 20.3847 1.318H18.636V0.5C18.636 0.367392 18.5833 0.240215 18.4896 0.146447C18.3958 0.0526784 18.2686 0 18.136 0L15.736 0C15.0288 0.00174346 14.3467 0.262378 13.8186 0.732681C13.2904 1.20298 12.9528 1.8504 12.8693 2.55267C9.47708 3.28546 6.44772 5.1811 4.30549 7.91153C2.16326 10.642 1.04296 14.0354 1.13845 17.5046C1.23394 20.9738 2.53922 24.3005 4.82841 26.9089C7.1176 29.5174 10.2467 31.2435 13.6741 31.7886C17.1015 32.3337 20.6117 31.6634 23.5971 29.8938C26.5826 28.1241 28.8555 25.3665 30.0225 22.0981C31.1895 18.8297 31.1771 15.2561 29.9876 11.9958C28.7981 8.73553 26.5063 5.99365 23.5087 4.24467ZM15.7353 1H17.636V4.8H15.7353C15.2402 4.78688 14.7696 4.58095 14.424 4.22606C14.0784 3.87117 13.885 3.39537 13.885 2.9C13.885 2.40463 14.0784 1.92883 14.424 1.57394C14.7696 1.21905 15.2402 1.01312 15.7353 1Z" fill="white"/>
<path d="M12.4025 9C11.7729 8.99892 11.1575 9.18721 10.6363 9.54043C10.1151 9.89365 9.71217 10.3955 9.47988 10.9807L7.97121 13.8233C7.88737 13.8105 7.80269 13.8041 7.71788 13.804C7.32595 13.7875 6.94342 13.9267 6.65378 14.1913C6.36413 14.4558 6.1909 14.8242 6.17188 15.216C6.17423 15.4134 6.21959 15.608 6.30479 15.7861C6.38998 15.9642 6.51298 16.1216 6.66521 16.2473C6.43201 16.7317 6.31079 17.2624 6.31054 17.8V19.1333C6.3105 19.6909 6.45966 20.2382 6.74254 20.7187V23.0433C6.74254 23.4854 6.91814 23.9093 7.2307 24.2218C7.54326 24.5344 7.96718 24.71 8.40921 24.71H9.67588C10.1179 24.71 10.5418 24.5344 10.8544 24.2218C11.1669 23.9093 11.3425 23.4854 11.3425 23.0433V22.27H20.6232V23.0073C20.6232 23.4494 20.7988 23.8733 21.1114 24.1858C21.4239 24.4984 21.8478 24.674 22.2899 24.674H23.5565C23.9986 24.674 24.4225 24.4984 24.7351 24.1858C25.0476 23.8733 25.2232 23.4494 25.2232 23.0073V20.8287C25.5499 20.3246 25.7234 19.7367 25.7225 19.136V17.8027C25.7231 17.2562 25.5986 16.7169 25.3585 16.226C25.5055 16.1002 25.6236 15.9442 25.7049 15.7686C25.7863 15.5931 25.8289 15.4021 25.8299 15.2087C25.8171 15 25.7611 14.7963 25.6654 14.6104C25.5697 14.4245 25.4364 14.2606 25.274 14.1289C25.1116 13.9973 24.9236 13.9009 24.7219 13.8457C24.5203 13.7906 24.3093 13.778 24.1025 13.8087L22.6985 11.0387C22.4706 10.4412 22.0672 9.92678 21.5414 9.56291C21.0156 9.19904 20.392 9.00281 19.7525 9H12.4025ZM21.7865 11.4407L23.3919 14.6153C23.449 14.7279 23.5465 14.8148 23.665 14.8585C23.7834 14.9021 23.914 14.8993 24.0305 14.8507C24.4072 14.694 24.8305 14.9227 24.8305 15.2107C24.8221 15.2981 24.787 15.3808 24.73 15.4476C24.673 15.5143 24.5969 15.562 24.5119 15.584C24.4407 15.6102 24.3763 15.6522 24.3238 15.7069C24.2712 15.7616 24.2317 15.8275 24.2083 15.8997C24.185 15.9718 24.1783 16.0484 24.1888 16.1235C24.1994 16.1986 24.2269 16.2704 24.2692 16.3333C24.566 16.7648 24.7248 17.2763 24.7245 17.8V19.1333C24.7248 19.5808 24.5831 20.0168 24.3199 20.3787C24.2584 20.4641 24.2253 20.5667 24.2252 20.672V23.0053C24.2252 23.1821 24.155 23.3517 24.0299 23.4767C23.9049 23.6018 23.7354 23.672 23.5585 23.672H22.2919C22.1151 23.672 21.9455 23.6018 21.8205 23.4767C21.6954 23.3517 21.6252 23.1821 21.6252 23.0053V21.77C21.6252 21.6374 21.5725 21.5102 21.4788 21.4164C21.385 21.3227 21.2578 21.27 21.1252 21.27H10.8452C10.7126 21.27 10.5854 21.3227 10.4917 21.4164C10.3979 21.5102 10.3452 21.6374 10.3452 21.77V23.046C10.3452 23.2228 10.275 23.3924 10.1499 23.5174C10.0249 23.6424 9.85535 23.7127 9.67854 23.7127H8.41188C8.23506 23.7127 8.06549 23.6424 7.94047 23.5174C7.81545 23.3924 7.74521 23.2228 7.74521 23.046V20.5793C7.74514 20.482 7.71664 20.3867 7.66321 20.3053C7.43488 19.9583 7.3132 19.5521 7.31321 19.1367V17.8033C7.31301 17.2835 7.46936 16.7757 7.76188 16.346C7.8053 16.2822 7.83332 16.2091 7.84376 16.1326C7.85419 16.0561 7.84674 15.9783 7.822 15.9051C7.79725 15.832 7.75589 15.7656 7.70115 15.7112C7.64642 15.6567 7.5798 15.6157 7.50654 15.5913C7.41888 15.5707 7.33977 15.5234 7.28008 15.4559C7.2204 15.3885 7.18306 15.3042 7.17321 15.2147C7.17321 14.9913 7.42321 14.8027 7.71921 14.8027C7.81795 14.8028 7.91535 14.8256 8.00388 14.8693C8.12048 14.9254 8.25426 14.9342 8.37718 14.8938C8.50009 14.8534 8.6026 14.767 8.66321 14.6527L10.3905 11.3893C10.5466 10.9818 10.8223 10.631 11.1814 10.383C11.5405 10.1351 11.9662 10.0016 12.4025 10H19.7525C20.1978 10.0043 20.6311 10.1443 20.9947 10.4014C21.3583 10.6585 21.6347 11.0203 21.7872 11.4387L21.7865 11.4407Z" fill="white"/>
</svg>
