<svg viewBox="0 0 32 32" fill="none" xmlns="http://www.w3.org/2000/svg">
<path d="M16 9.97627C14.9826 9.97627 14.065 10.5978 13.675 11.5514C13.2848 12.505 13.5002 13.6009 14.2211 14.33C14.9405 15.0606 16.0234 15.2789 16.9628 14.8835C17.9037 14.4881 18.517 13.5583 18.517 12.5272C18.5154 11.1196 17.3888 9.97785 16 9.97627ZM16 14.3033C15.2916 14.3033 14.6518 13.8716 14.3803 13.2074C14.1087 12.5432 14.2585 11.7794 14.761 11.2717C15.2619 10.7625 16.0156 10.6107 16.671 10.8858C17.3263 11.161 17.7523 11.8094 17.7523 12.5274C17.7523 13.5079 16.9675 14.3033 16 14.3033ZM30.9098 8.4929L28.9796 8.49448V8.10544C28.9796 7.50606 28.5005 7.02056 27.9091 7.02056C27.3177 7.02056 26.8387 7.50606 26.8387 8.10544V8.49448H24.9084C24.6213 8.48815 24.3435 8.60044 24.1391 8.80444C23.9331 9.00845 23.8177 9.28678 23.8177 9.57778C23.8177 9.86879 23.9331 10.1471 24.1391 10.3511C24.3435 10.5551 24.6213 10.6674 24.9084 10.6611H26.575V10.7022V11.0485L21.7062 11.047C21.3785 11.0549 21.0821 10.8509 20.9681 10.5393C20.1629 8.47236 18.1921 7.11392 15.9995 7.11392C13.8069 7.11392 11.8362 8.4724 11.0309 10.5393C10.917 10.8509 10.6205 11.0549 10.2928 11.047H5.42406V10.7006V10.6595L7.09061 10.6611C7.37773 10.6674 7.6555 10.5551 7.85991 10.3511C8.06588 10.1471 8.18136 9.86879 8.18136 9.57778C8.18136 9.28678 8.06589 9.00848 7.85991 8.80444C7.65549 8.60043 7.37775 8.48815 7.09061 8.49448H5.15881V8.10544C5.16505 7.81445 5.05426 7.53294 4.85297 7.32578C4.65167 7.11703 4.37704 7 4.0899 7C3.80276 7 3.52657 7.11703 3.32527 7.32578C3.12398 7.53295 3.01319 7.81443 3.01943 8.10544V8.49448H1.08919C0.802068 8.48815 0.525855 8.60044 0.319888 8.80444C0.115471 9.00845 0 9.28678 0 9.57778C0 9.86879 0.115471 10.1471 0.319888 10.3511C0.525863 10.5551 0.802048 10.6674 1.08919 10.6611H2.75574V10.7022V12.815C2.75574 13.4619 3.2067 14.017 3.83243 14.1419C4.45972 14.2668 5.08389 13.9252 5.32577 13.3274H10.0711C10.4331 13.3243 10.7499 13.571 10.8388 13.9252C10.9012 14.1624 10.9808 14.3965 11.076 14.6227L6.51965 17.2874C6.4307 17.3396 6.36828 17.4234 6.34176 17.523L5.01228 22.5553H5.01072C4.86716 23.1736 5.23386 23.7952 5.8393 23.9597C6.44318 24.1225 7.06735 23.7699 7.24835 23.1626L8.37186 18.9149L12.4245 16.5443C12.5212 16.6329 12.6211 16.7183 12.7257 16.8005L12.7241 21.5575C12.7241 21.771 12.8942 21.9449 13.1064 21.9449H18.8923C19.103 21.9449 19.2746 21.771 19.2746 21.5575V16.8005C19.3792 16.7198 19.479 16.6329 19.5758 16.5443L23.6296 18.9149L24.75 23.1626C24.9295 23.7714 25.5536 24.1241 26.1591 23.9597C26.7645 23.7952 27.1312 23.1737 26.9876 22.5553L25.6566 17.523C25.6301 17.4234 25.5661 17.3396 25.4787 17.2874L20.9256 14.6211V14.6227C21.0192 14.3949 21.0988 14.1609 21.1612 13.9236C21.2517 13.5694 21.5684 13.3227 21.9289 13.3258H26.6742C26.9145 13.9236 27.5403 14.2652 28.166 14.1419C28.7917 14.0169 29.2427 13.4603 29.2427 12.815V10.7038V10.6627H30.9093C31.1964 10.669 31.4741 10.5568 31.6801 10.3528C31.8845 10.1487 32 9.87041 32 9.57941C32 9.2884 31.8845 9.01011 31.6801 8.80606C31.4741 8.60205 31.1964 8.48977 30.9093 8.4961L30.9098 8.4929ZM27.6033 8.10386V8.10544C27.6033 7.93464 27.7406 7.79548 27.9091 7.79548C28.0776 7.79548 28.215 7.93465 28.215 8.10544V8.49448H27.6033L27.6033 8.10386ZM3.78487 8.10386V8.10544C3.78487 7.93464 3.92219 7.79548 4.09071 7.79548C4.25924 7.79548 4.39656 7.93465 4.39656 8.10544V8.49448H3.78489L3.78487 8.10386ZM0.784172 9.57618C0.785732 9.40538 0.92149 9.26622 1.09001 9.26622H7.09125C7.25666 9.27254 7.38618 9.41013 7.38618 9.57618C7.38618 9.74223 7.25666 9.87982 7.09125 9.88614H1.09001C0.921486 9.88456 0.78573 9.74697 0.784172 9.57618ZM4.08915 13.3906H4.09071C3.77706 13.3906 3.52114 13.1329 3.51959 12.815V10.7038C3.51959 10.6895 3.51959 10.6753 3.52271 10.6627H4.65872C4.65872 10.6769 4.66184 10.6911 4.66184 10.7038V12.815C4.66028 13.1329 4.40437 13.3922 4.09072 13.3922L4.08915 13.3906ZM7.85292 18.325C7.76553 18.3756 7.70155 18.461 7.67503 18.5606L6.51093 22.9617C6.45476 23.1752 6.23942 23.3017 6.02877 23.2448C5.81812 23.1879 5.69328 22.9681 5.74945 22.7562L7.03839 17.8789L11.4234 15.3138C11.5591 15.5431 11.712 15.7614 11.879 15.9685L7.85292 18.325ZM18.5108 21.17H13.4894V16.7231H18.5108V21.17ZM24.9602 17.879L26.2507 22.7562C26.3069 22.9681 26.1821 23.1879 25.9714 23.2449C25.7607 23.3018 25.5454 23.1753 25.4892 22.9618L24.3251 18.5607C24.2986 18.461 24.2346 18.3756 24.1473 18.325L20.1214 15.9687C20.2884 15.7615 20.4413 15.5433 20.577 15.3139L24.9602 17.879ZM20.4226 13.7244C20.1917 14.5958 19.7142 15.3818 19.051 15.9827C19.0011 15.9606 18.948 15.9495 18.8934 15.9479H13.1075C13.0529 15.9495 12.9998 15.9606 12.9499 15.9827C12.2867 15.3817 11.8092 14.5958 11.5783 13.7244C11.4019 13.0285 10.7809 12.5446 10.0725 12.5494H5.42543V11.8203L10.2942 11.8219C10.9355 11.8298 11.5144 11.4297 11.7438 10.8224C12.4335 9.05121 14.1219 7.88727 16.0006 7.88727C17.8792 7.88727 19.5677 9.05121 20.2573 10.8224C20.4867 11.4297 21.0656 11.8298 21.707 11.8219H26.5757V12.551L21.9287 12.5494C21.2202 12.5447 20.599 13.0286 20.4226 13.7244ZM28.4808 10.7038V12.8151C28.4808 13.1345 28.2248 13.3939 27.9096 13.3939C27.5944 13.3939 27.3385 13.1345 27.3385 12.8151V10.7038C27.3385 10.6896 27.3385 10.6754 27.3416 10.6627H28.4792C28.4792 10.6754 28.4808 10.6896 28.4808 10.7038ZM30.9103 9.88783H24.9091C24.8264 9.891 24.7453 9.85937 24.686 9.80085C24.6251 9.74234 24.5923 9.66169 24.5923 9.57787C24.5923 9.49405 24.6251 9.4134 24.686 9.35489C24.7453 9.29638 24.8264 9.26474 24.9091 9.26791H30.9091C30.9918 9.26475 31.073 9.29638 31.1323 9.35489C31.1916 9.4134 31.2259 9.49405 31.2259 9.57787C31.2259 9.66169 31.1916 9.74234 31.1323 9.80085C31.073 9.85937 30.9918 9.891 30.9091 9.88783H30.9103ZM16.0005 20.3714C16.5685 20.3714 17.0819 20.0235 17.2988 19.4921C17.5157 18.9592 17.3955 18.3472 16.9945 17.9392C16.5919 17.5327 15.988 17.411 15.4622 17.6308C14.9379 17.8522 14.5946 18.3709 14.5946 18.9466C14.5961 19.7325 15.225 20.3699 16.0005 20.3714ZM16.0005 18.2966C16.2595 18.2966 16.4936 18.4547 16.5935 18.6983C16.6918 18.9402 16.6372 19.2202 16.4546 19.4068C16.2705 19.5918 15.9943 19.6487 15.7555 19.5475C15.5152 19.4463 15.3592 19.2091 15.3592 18.9465C15.3592 18.5876 15.6463 18.2966 16.0005 18.2966Z"/>
</svg>
