<svg  viewBox="0 0 31 31" fill="none" xmlns="http://www.w3.org/2000/svg">
<path d="M30.9643 27.8805C31.0119 27.7683 31.0119 27.6362 30.9643 27.5239C30.9366 27.4671 30.9075 27.4117 30.8613 27.3734L28.0433 24.5564C27.8557 24.3689 27.5637 24.3689 27.3761 24.5564C27.1885 24.7439 27.1885 25.0358 27.3761 25.2233L29.3961 27.2427H24.4261V7.04034C24.4261 6.77752 24.22 6.57019 23.9558 6.57019H3.75664V1.60328L5.77669 3.6226C5.87049 3.71637 5.99336 3.76391 6.10566 3.76391C6.21796 3.76391 6.35007 3.71637 6.43463 3.6226C6.62223 3.43507 6.62223 3.14319 6.43463 2.95565L3.61663 0.13867C3.61663 0.13867 3.52283 0.0633905 3.46602 0.0356568C3.35372 -0.0118856 3.22161 -0.0118856 3.10931 0.0356568C3.0525 0.0633908 2.99701 0.092446 2.9587 0.13867L0.140703 2.95565C-0.0469009 3.14319 -0.0469009 3.43506 0.140703 3.6226C0.328306 3.81014 0.62029 3.81014 0.807897 3.6226L2.82794 1.60328V27.7023C2.82794 27.9651 3.03404 28.1724 3.29826 28.1724H29.4067L27.3866 30.1917C27.199 30.3793 27.199 30.6711 27.3866 30.8587C27.4804 30.9525 27.6033 31 27.7156 31C27.8279 31 27.96 30.9525 28.0445 30.8587L30.8625 28.0417C30.8625 28.0417 30.9378 27.9479 30.9656 27.8912L30.9643 27.8805ZM9.75056 27.232L23.4851 13.5025V21.8794L18.1213 27.2412H9.74143L9.75056 27.232ZM3.7564 13.1827L9.43061 7.51049H18.1305L3.76554 21.8703V13.1735L3.7564 13.1827ZM8.09636 7.51049L3.7564 11.8489V7.51049H8.09636ZM3.7564 23.2027L19.4556 7.51049H23.4864V12.1684L8.41597 27.232H3.7564V23.2027ZM19.4556 27.232L23.4864 23.2027V27.232H19.4556ZM23.4851 3.28435C23.4851 3.02153 23.6912 2.8142 23.9554 2.8142H26.7734C27.5529 2.8142 28.1831 3.44284 28.1831 4.22336V7.04034C28.1831 7.30315 27.977 7.51049 27.7127 7.51049C27.4498 7.51049 27.2424 7.30446 27.2424 7.04034V4.22336C27.2424 3.96055 27.0363 3.75321 26.7721 3.75321H23.9541C23.6912 3.75321 23.4838 3.54718 23.4838 3.28306L23.4851 3.28435ZM15.9703 3.28435C15.9703 3.02153 16.1764 2.8142 16.4406 2.8142H20.1978C20.4608 2.8142 20.6682 3.03078 20.6682 3.28435C20.6682 3.53791 20.4621 3.7545 20.1978 3.7545H16.4406C16.1777 3.7545 15.9703 3.53791 15.9703 3.28435ZM8.45419 3.28435C8.45419 3.02153 8.66029 2.8142 8.92451 2.8142H12.6817C12.9446 2.8142 13.152 3.03078 13.152 3.28435C13.152 3.53791 12.9459 3.7545 12.6817 3.7545H8.92451C8.6616 3.7545 8.45419 3.53791 8.45419 3.28435ZM28.1829 18.3095V22.0653C28.1829 22.3281 27.9662 22.5355 27.7125 22.5355C27.4589 22.5355 27.2422 22.3295 27.2422 22.0653V18.3095C27.2422 18.0467 27.4589 17.8393 27.7125 17.8393C27.9662 17.8393 28.1829 18.0454 28.1829 18.3095ZM28.1829 10.7961V14.5519C28.1829 14.8147 27.9662 15.0221 27.7125 15.0221C27.4589 15.0221 27.2422 14.816 27.2422 14.5519V10.7961C27.2422 10.5333 27.4589 10.3259 27.7125 10.3259C27.9662 10.3259 28.1829 10.5319 28.1829 10.7961Z" fill="white"/>
</svg>
