<svg viewBox="0 0 32 32" fill="none" xmlns="http://www.w3.org/2000/svg">
<path d="M20 17.5V6H30V17.5"  stroke-width="0.8"/>
<path d="M20 17L30 17"  stroke-width="0.8"/>
<path d="M15.5 19.9998L32 19.9995"  stroke-width="0.8"/>
<path d="M20 13H30M20.8824 10H24.8529H28.8235M20.8824 8H28.8235" stroke-width="0.8"/>
<path d="M3 28H31"  stroke-width="0.8" stroke-dasharray="4 4"/>
<path d="M2.00727 5.00053C1.88739 5.01183 1.77607 5.06757 1.69521 5.15679C1.61435 5.24602 1.5698 5.36226 1.57032 5.48267V16.8131C1.57033 16.9409 1.62114 17.0635 1.71156 17.154C1.80197 17.2444 1.9246 17.2952 2.05247 17.2952H3.01678V18.2595H2.77571C2.64783 18.2595 2.5252 18.3103 2.43478 18.4007C2.34436 18.4911 2.29356 18.6138 2.29355 18.7416V23.0809C2.29356 23.2088 2.34436 23.3314 2.43478 23.4218C2.5252 23.5122 2.64783 23.5631 2.77571 23.5631H3.25786V24.7684C3.25786 25.5614 3.91133 26.2148 4.70433 26.2148H5.18648C5.97949 26.2148 6.63295 25.5614 6.63295 24.7684V23.5631H11.9367V24.7684C11.9367 25.5614 12.5901 26.2148 13.3831 26.2148H13.8653C14.6583 26.2148 15.3117 25.5614 15.3117 24.7684V23.5631H15.7939C15.9218 23.5631 16.0444 23.5122 16.1348 23.4218C16.2252 23.3314 16.2761 23.2088 16.2761 23.0809V18.7416C16.2761 18.6138 16.2252 18.4911 16.1348 18.4007C16.0444 18.3103 15.9218 18.2595 15.7939 18.2595H15.5528V17.2952H16.5171C16.645 17.2952 16.7676 17.2444 16.8581 17.154C16.9485 17.0635 16.9993 16.9409 16.9993 16.8131V5.48267C16.9993 5.3548 16.9485 5.23217 16.8581 5.14176C16.7676 5.05134 16.645 5.00054 16.5171 5.00053H2.05247C2.03741 4.99982 2.02233 4.99982 2.00727 5.00053ZM2.53463 5.96481H16.035V16.3309H15.5528V11.2684C15.5528 10.0747 14.5768 9.09875 13.3831 9.09875H5.18648C3.99281 9.09875 3.01678 10.0747 3.01678 11.2684V16.3309H2.53463V5.96481ZM5.18648 10.063H13.3831C14.0593 10.063 14.5885 10.5923 14.5885 11.2684V18.7416C14.5885 18.8695 14.6393 18.9921 14.7298 19.0825C14.8202 19.173 14.9428 19.2238 15.0707 19.2238H15.3117V22.5988H3.25786V19.2238H3.49894C3.62681 19.2238 3.74944 19.173 3.83986 19.0825C3.93027 18.9921 3.98108 18.8695 3.98109 18.7416V11.2684C3.98109 10.5923 4.51036 10.063 5.18648 10.063ZM5.90972 10.5452C5.11671 10.5452 4.46325 11.1986 4.46325 11.9916V16.3309C4.46325 17.1239 5.11671 17.7773 5.90972 17.7773H12.6599C13.4529 17.7773 14.1064 17.1239 14.1064 16.3309V11.9916C14.1064 11.1986 13.4529 10.5452 12.6599 10.5452H5.90972ZM5.90972 11.5095H12.6599C12.9353 11.5095 13.142 11.7162 13.142 11.9916V16.3309C13.142 16.6064 12.9353 16.8131 12.6599 16.8131H5.90972C5.63426 16.8131 5.42756 16.6064 5.42756 16.3309V11.9916C5.42756 11.7162 5.63426 11.5095 5.90972 11.5095ZM5.42756 19.2238C4.63441 19.2238 3.98109 19.8771 3.98109 20.6702C3.98109 21.4633 4.63441 22.1166 5.42756 22.1166C6.22071 22.1166 6.87403 21.4633 6.87403 20.6702C6.87403 19.8771 6.22071 19.2238 5.42756 19.2238ZM13.142 19.2238C12.3489 19.2238 11.6956 19.8771 11.6956 20.6702C11.6956 21.4633 12.3489 22.1166 13.142 22.1166C13.9352 22.1166 14.5885 21.4633 14.5885 20.6702C14.5885 19.8771 13.9352 19.2238 13.142 19.2238ZM5.42756 20.188C5.69956 20.188 5.90972 20.3982 5.90972 20.6702C5.90972 20.9422 5.69956 21.1523 5.42756 21.1523C5.15556 21.1523 4.94541 20.9422 4.94541 20.6702C4.94541 20.3982 5.15556 20.188 5.42756 20.188ZM13.142 20.188C13.414 20.188 13.6242 20.3982 13.6242 20.6702C13.6242 20.9422 13.414 21.1523 13.142 21.1523C12.8701 21.1523 12.6599 20.9422 12.6599 20.6702C12.6599 20.3982 12.8701 20.188 13.142 20.188ZM4.22217 23.5631H5.66864V24.7684C5.66864 25.0439 5.46194 25.2506 5.18648 25.2506H4.70433C4.42887 25.2506 4.22217 25.0439 4.22217 24.7684V23.5631ZM12.901 23.5631H14.3474V24.7684C14.3474 25.0439 14.1407 25.2506 13.8653 25.2506H13.3831C13.1077 25.2506 12.901 25.0439 12.901 24.7684V23.5631Z" />
</svg>
