<svg  viewBox="0 0 32 32" fill="none" xmlns="http://www.w3.org/2000/svg">
<path d="M16.3333 6C14.9193 6.00159 13.5637 6.55918 12.5639 7.55045C11.564 8.54172 11.0016 9.88572 11 11.2876C11 16.2977 15.879 19.9989 16.0865 20.154C16.092 20.1581 16.0986 20.1594 16.1042 20.1632C16.5366 20.4582 16.5145 20.1449 17.0361 19.7848C18.2897 18.7177 21.6667 15.457 21.6667 11.2876C21.6651 9.88572 21.1026 8.54172 20.1028 7.55045C19.103 6.55918 17.7473 6.00159 16.3333 6ZM16.3333 19.3058C15.3566 18.4927 11.8205 15.2729 11.8205 11.2876C11.8205 10.101 12.296 8.96297 13.1423 8.12391C13.9886 7.28485 15.1365 6.81348 16.3333 6.81348C17.5302 6.81348 18.6781 7.28485 19.5244 8.12391C20.3707 8.96297 20.8462 10.101 20.8462 11.2876C20.8462 15.2729 17.3101 18.4927 16.3333 19.3058Z" fill="white"/>
<path d="M16.2222 9C15.7827 9 15.3531 9.13033 14.9876 9.37451C14.6222 9.61869 14.3374 9.96576 14.1692 10.3718C14.001 10.7779 13.957 11.2247 14.0427 11.6558C14.1284 12.0868 14.3401 12.4828 14.6509 12.7936C14.9617 13.1044 15.3576 13.316 15.7887 13.4017C16.2198 13.4875 16.6666 13.4435 17.0726 13.2753C17.4787 13.1071 17.8258 12.8223 18.0699 12.4568C18.3141 12.0914 18.4444 11.6617 18.4444 11.2222C18.4438 10.6331 18.2094 10.0682 17.7928 9.65164C17.3762 9.23504 16.8114 9.00069 16.2222 9ZM16.2222 12.5556C15.9585 12.5556 15.7007 12.4774 15.4815 12.3308C15.2622 12.1843 15.0913 11.9761 14.9904 11.7325C14.8895 11.4888 14.8631 11.2207 14.9145 10.9621C14.966 10.7035 15.0929 10.4659 15.2794 10.2794C15.4659 10.0929 15.7035 9.96596 15.9621 9.91451C16.2207 9.86306 16.4888 9.88947 16.7325 9.99038C16.9761 10.0913 17.1843 10.2622 17.3308 10.4815C17.4774 10.7007 17.5556 10.9585 17.5556 11.2222C17.5552 11.5757 17.4146 11.9146 17.1646 12.1646C16.9146 12.4146 16.5757 12.5552 16.2222 12.5556Z" fill="white"/>
<path d="M21.0884 20.1247L20.4343 19.7234C20.3476 19.6706 20.2483 19.6607 20.1581 19.6956C20.068 19.7306 19.9943 19.8076 19.9533 19.9099C19.9122 20.0122 19.9072 20.1313 19.9392 20.2413C19.9712 20.3512 20.0377 20.443 20.1241 20.4965L20.7783 20.8977C20.865 20.9507 20.9644 20.9608 21.0547 20.9259C21.145 20.891 21.2187 20.8139 21.2598 20.7115C21.3009 20.6091 21.3059 20.4898 21.2738 20.3798C21.2416 20.2698 21.175 20.178 21.0884 20.1247Z" fill="white"/>
<path d="M9.04937 14.1553L8.39523 13.754C8.30853 13.7013 8.20923 13.6913 8.11907 13.7263C8.02892 13.7612 7.95525 13.8383 7.91422 13.9405C7.87318 14.0428 7.86813 14.162 7.90015 14.2719C7.93218 14.3819 7.99868 14.4736 8.08508 14.5271L8.73923 14.9283C8.82594 14.9813 8.92535 14.9915 9.01562 14.9566C9.1059 14.9216 9.17966 14.8445 9.22074 14.7422C9.26182 14.6398 9.26684 14.5205 9.23471 14.4105C9.20258 14.3004 9.13593 14.2087 9.04937 14.1553Z" fill="white"/>
<path d="M18.7487 19.0112L18.0948 18.6101C18.0081 18.5571 17.9087 18.547 17.8185 18.5819C17.7282 18.6168 17.6545 18.6938 17.6134 18.7962C17.5724 18.8986 17.5673 19.0178 17.5994 19.1278C17.6316 19.2378 17.6982 19.3296 17.7847 19.3829L18.4386 19.7841C18.5253 19.837 18.6247 19.8472 18.7149 19.8123C18.8052 19.7774 18.8789 19.7003 18.92 19.5979C18.961 19.4956 18.9661 19.3763 18.9339 19.2663C18.9018 19.1563 18.8352 19.0646 18.7487 19.0112Z" fill="white"/>
<path d="M6.70961 13.0419L6.05569 12.6407C5.969 12.5878 5.86964 12.5776 5.77939 12.6125C5.68915 12.6474 5.61541 12.7245 5.57435 12.8268C5.53329 12.9292 5.52827 13.0485 5.56038 13.1585C5.5925 13.2685 5.65914 13.3602 5.74566 13.4136L6.39958 13.8147C6.48627 13.8677 6.58563 13.8778 6.67588 13.8429C6.76612 13.808 6.83986 13.7309 6.88092 13.6286C6.92198 13.5262 6.927 13.407 6.89489 13.297C6.86277 13.187 6.79613 13.0952 6.70961 13.0419Z" fill="white"/>
<path d="M22.0801 21.6483L22.9378 22.03C23.0514 22.0797 23.1829 22.0863 23.3037 22.0482C23.4244 22.0102 23.5246 21.9306 23.5824 21.8269C23.6401 21.7232 23.6507 21.6038 23.6119 21.4947C23.5731 21.3856 23.488 21.2956 23.3751 21.2445L22.5175 20.8628C22.4038 20.8121 22.2716 20.8049 22.1502 20.8428C22.0288 20.8806 21.928 20.9604 21.87 21.0646C21.812 21.1687 21.8015 21.2887 21.8409 21.3982C21.8804 21.5077 21.9664 21.5976 22.0801 21.6483Z" fill="white"/>
<path d="M10.041 15.6789L10.8987 16.0606C11.0123 16.1103 11.1439 16.1169 11.2646 16.0788C11.3854 16.0408 11.4856 15.9613 11.5433 15.8576C11.6011 15.7539 11.6117 15.6344 11.5728 15.5253C11.534 15.4162 11.4489 15.3263 11.3361 15.2751L10.4784 14.8934C10.3647 14.8428 10.2326 14.8356 10.1111 14.8734C9.98971 14.9113 9.88891 14.991 9.83091 15.0952C9.77291 15.1994 9.76247 15.3194 9.80188 15.4288C9.84129 15.5383 9.92731 15.6283 10.041 15.6789Z" fill="white"/>
<path d="M25.2132 23.2149C25.2912 23.2075 25.3641 23.1695 25.4209 23.1068C25.4778 23.0441 25.5154 22.9601 25.5282 22.8674C25.541 22.7748 25.5282 22.6786 25.4917 22.5933C25.4553 22.508 25.3972 22.4383 25.3262 22.3948L24.6727 21.994C24.6297 21.9677 24.5833 21.9516 24.5358 21.9468C24.4884 21.9419 24.441 21.9483 24.3963 21.9655C24.3516 21.9828 24.3105 22.0106 24.2754 22.0475C24.2402 22.0843 24.2116 22.1293 24.1913 22.18C24.171 22.2308 24.1594 22.2862 24.1571 22.3431C24.1547 22.4 24.1618 22.4574 24.1777 22.5118C24.1937 22.5663 24.2184 22.6168 24.2502 22.6605C24.2821 22.7042 24.3206 22.7402 24.3635 22.7665L25.0171 23.1674C25.0781 23.205 25.146 23.2215 25.2132 23.2149Z" fill="white"/>
<path d="M13.1741 17.2456C13.2521 17.2381 13.325 17.2001 13.3819 17.1374C13.4387 17.0748 13.4764 16.9907 13.4891 16.8981C13.5019 16.8054 13.4891 16.7092 13.4527 16.6239C13.4162 16.5387 13.3581 16.469 13.2871 16.4255L12.6336 16.0246C12.5907 15.9983 12.5442 15.9823 12.4968 15.9774C12.4494 15.9725 12.402 15.9789 12.3573 15.9962C12.3126 16.0135 12.2715 16.0413 12.2363 16.0781C12.2011 16.1149 12.1726 16.1599 12.1523 16.2107C12.132 16.2614 12.1203 16.3168 12.118 16.3737C12.1157 16.4307 12.1227 16.488 12.1387 16.5425C12.1547 16.5969 12.1793 16.6474 12.2112 16.6911C12.2431 16.7348 12.2815 16.7709 12.3245 16.7972L12.978 17.198C13.039 17.2357 13.107 17.2521 13.1741 17.2456Z" fill="white"/>
<path d="M5.33377 29.8414H4.88932V23.1965C5.42889 23.0942 5.90835 22.8096 6.23474 22.3977C6.56113 21.9858 6.71119 21.4761 6.65584 20.9673C6.60049 20.4585 6.34367 19.987 5.93517 19.644C5.52666 19.3011 4.99558 19.1112 4.44488 19.1112C3.89418 19.1112 3.3631 19.3011 2.95459 19.644C2.54609 19.987 2.28926 20.4585 2.23391 20.9673C2.17856 21.4761 2.32863 21.9858 2.65502 22.3977C2.9814 22.8096 3.46086 23.0942 4.00043 23.1965V29.8414H3.55599C3.43812 29.8414 3.32507 29.8848 3.24172 29.9622C3.15837 30.0396 3.11155 30.1446 3.11155 30.2541C3.11155 30.3635 3.15837 30.4685 3.24172 30.5459C3.32507 30.6233 3.43812 30.6668 3.55599 30.6668H5.33377C5.45164 30.6668 5.56468 30.6233 5.64803 30.5459C5.73138 30.4685 5.77821 30.3635 5.77821 30.2541C5.77821 30.1446 5.73138 30.0396 5.64803 29.9622C5.56468 29.8848 5.45164 29.8414 5.33377 29.8414ZM3.11155 21.1747C3.11155 20.9298 3.18975 20.6905 3.33625 20.4869C3.48276 20.2833 3.691 20.1246 3.93463 20.0309C4.17827 19.9372 4.44636 19.9126 4.705 19.9604C4.96364 20.0082 5.20122 20.1261 5.38769 20.2993C5.57415 20.4724 5.70114 20.693 5.75259 20.9332C5.80404 21.1733 5.77763 21.4223 5.67671 21.6485C5.5758 21.8747 5.4049 22.0681 5.18564 22.2042C4.96637 22.3402 4.70859 22.4128 4.44488 22.4128C4.09138 22.4124 3.75246 22.2819 3.5025 22.0498C3.25253 21.8177 3.11193 21.503 3.11155 21.1747Z" fill="white"/>
<path d="M29.7784 14.9524C29.7784 14.562 29.6591 14.1796 29.4344 13.8496C29.2097 13.5196 28.8887 13.2555 28.5089 13.0881C28.129 12.9208 27.7058 12.8569 27.2883 12.904C26.8709 12.951 26.4765 13.1071 26.1508 13.354C25.8251 13.601 25.5815 13.9286 25.4483 14.299C25.3152 14.6693 25.2979 15.0672 25.3986 15.4463C25.4992 15.8254 25.7136 16.1702 26.0169 16.4406C26.3201 16.7111 26.6998 16.8961 27.1118 16.9742V23.6191H26.6673C26.5494 23.6191 26.4364 23.6626 26.353 23.74C26.2697 23.8173 26.2229 23.9223 26.2229 24.0318C26.2229 24.1412 26.2697 24.2462 26.353 24.3236C26.4364 24.401 26.5494 24.4445 26.6673 24.4445H28.4451C28.563 24.4445 28.676 24.401 28.7594 24.3236C28.8427 24.2462 28.8895 24.1412 28.8895 24.0318C28.8895 23.9223 28.8427 23.8173 28.7594 23.74C28.676 23.6626 28.563 23.6191 28.4451 23.6191H28.0007V16.9742C28.5022 16.8785 28.9529 16.6251 29.2767 16.2568C29.6005 15.8886 29.7777 15.4279 29.7784 14.9524ZM26.2229 14.9524C26.2229 14.7076 26.3011 14.4682 26.4476 14.2646C26.5941 14.061 26.8023 13.9023 27.046 13.8086C27.2896 13.7149 27.5577 13.6904 27.8163 13.7381C28.075 13.7859 28.3125 13.9038 28.499 14.077C28.6855 14.2501 28.8125 14.4707 28.8639 14.7109C28.9154 14.9511 28.889 15.2 28.788 15.4262C28.6871 15.6525 28.5162 15.8458 28.297 15.9819C28.0777 16.1179 27.8199 16.1905 27.5562 16.1905C27.2027 16.1902 26.8638 16.0596 26.6138 15.8275C26.3639 15.5954 26.2233 15.2807 26.2229 14.9524Z" fill="white"/>
<path d="M6 3.39688C6 3.00644 5.89264 2.62401 5.69039 2.29401C5.48813 1.96401 5.19928 1.69999 4.85739 1.53261C4.51549 1.36522 4.13459 1.30136 3.75892 1.34842C3.38325 1.39549 3.02823 1.55155 2.7351 1.79849C2.44196 2.04542 2.22275 2.3731 2.10292 2.74345C1.98309 3.1138 1.96755 3.51163 2.05813 3.89072C2.1487 4.26982 2.34165 4.61462 2.61458 4.88509C2.88751 5.15555 3.22922 5.34057 3.6 5.41866V12.0635H3.2C3.09391 12.0635 2.99217 12.107 2.91716 12.1844C2.84214 12.2618 2.8 12.3668 2.8 12.4762C2.8 12.5857 2.84214 12.6907 2.91716 12.7681C2.99217 12.8454 3.09391 12.8889 3.2 12.8889H4.8C4.90609 12.8889 5.00783 12.8454 5.08284 12.7681C5.15786 12.6907 5.2 12.5857 5.2 12.4762C5.2 12.3668 5.15786 12.2618 5.08284 12.1844C5.00783 12.107 4.90609 12.0635 4.8 12.0635H4.4V5.41866C4.85138 5.32294 5.25698 5.06958 5.54843 4.7013C5.83989 4.33302 5.99937 3.87233 6 3.39688ZM2.8 3.39688C2.8 3.15201 2.87038 2.91264 3.00224 2.70904C3.13409 2.50543 3.32151 2.34674 3.54078 2.25304C3.76005 2.15933 4.00133 2.13481 4.23411 2.18258C4.46689 2.23035 4.68071 2.34827 4.84853 2.52142C5.01635 2.69457 5.13064 2.91518 5.17694 3.15534C5.22324 3.39551 5.19948 3.64445 5.10865 3.87068C5.01783 4.09691 4.86402 4.29028 4.66668 4.42632C4.46935 4.56236 4.23734 4.63498 4 4.63498C3.68185 4.63462 3.37682 4.50406 3.15186 4.27195C2.92689 4.03984 2.80035 3.72514 2.8 3.39688Z" fill="white"/>
<path d="M6.22089 29.3463L6.04515 29.3988C5.95364 29.4265 5.87523 29.4956 5.8271 29.5909C5.77898 29.6862 5.76506 29.7999 5.78841 29.9072C5.81176 30.0145 5.87046 30.1066 5.95166 30.1633C6.03285 30.22 6.12992 30.2366 6.22158 30.2096L6.39732 30.1571C6.44276 30.1436 6.48548 30.1196 6.52304 30.0867C6.56059 30.0538 6.59224 30.0126 6.61618 29.9653C6.64013 29.9181 6.65589 29.8658 6.66258 29.8114C6.66927 29.757 6.66675 29.7016 6.65517 29.6484C6.64358 29.5952 6.62316 29.5451 6.59506 29.5011C6.56697 29.4571 6.53175 29.4201 6.49143 29.392C6.4511 29.364 6.40645 29.3455 6.36003 29.3376C6.31361 29.3298 6.26633 29.3328 6.22089 29.3463Z" fill="white"/>
<path d="M25.3564 24.4555L24.7003 24.6318C24.6203 24.6532 24.5506 24.7046 24.5041 24.7763C24.4577 24.848 24.4377 24.9351 24.4479 25.0212C24.4582 25.1073 24.4979 25.1866 24.5597 25.244C24.6215 25.3015 24.7011 25.3333 24.7836 25.3333C24.8119 25.3334 24.8402 25.3297 24.8676 25.3222L25.5237 25.1459C25.5668 25.1344 25.6073 25.114 25.6429 25.086C25.6785 25.0579 25.7085 25.0228 25.7312 24.9826C25.7539 24.9423 25.7689 24.8978 25.7752 24.8515C25.7815 24.8052 25.7791 24.758 25.7681 24.7127C25.7572 24.6673 25.7378 24.6247 25.7111 24.5873C25.6845 24.5498 25.6511 24.5182 25.6129 24.4944C25.5747 24.4705 25.5323 24.4548 25.4883 24.4481C25.4443 24.4414 25.3995 24.4439 25.3564 24.4555Z" fill="white"/>
<path d="M8.46586 28.9L7.80953 29.0762C7.72964 29.0977 7.65993 29.1491 7.61349 29.2208C7.56706 29.2925 7.54708 29.3796 7.5573 29.4657C7.56753 29.5518 7.60726 29.631 7.66904 29.6885C7.73082 29.7459 7.8104 29.7777 7.89285 29.7778C7.92118 29.7779 7.9494 29.7741 7.97684 29.7667L8.63317 29.5904C8.67625 29.5788 8.71673 29.5585 8.75233 29.5304C8.78792 29.5024 8.81791 29.4673 8.8406 29.427C8.86329 29.3868 8.87823 29.3423 8.88457 29.296C8.8909 29.2496 8.88851 29.2025 8.87752 29.1571C8.86654 29.1118 8.84717 29.0692 8.82054 29.0317C8.79391 28.9943 8.76053 28.9627 8.7223 28.9388C8.68407 28.9149 8.64175 28.8992 8.59775 28.8926C8.55375 28.8859 8.50894 28.8884 8.46586 28.9Z" fill="white"/>
<path d="M15.8803 27.1223L15.0055 27.2987C14.8895 27.3222 14.7901 27.381 14.729 27.4623C14.668 27.5436 14.6504 27.6407 14.6801 27.7322C14.7098 27.8237 14.7844 27.9022 14.8874 27.9504C14.9905 27.9985 15.1135 28.0124 15.2295 27.989L16.1043 27.8126C16.2203 27.7891 16.3197 27.7303 16.3808 27.649C16.4418 27.5677 16.4594 27.4706 16.4297 27.3791C16.4 27.2876 16.3254 27.2091 16.2224 27.1609C16.1194 27.1128 15.9963 27.0989 15.8803 27.1223Z" fill="white"/>
<path d="M22.9921 24.9055L22.1173 25.1699C22.0107 25.2021 21.9177 25.2792 21.8558 25.3867C21.7938 25.4943 21.7672 25.6249 21.7808 25.7541C21.7945 25.8832 21.8475 26.0021 21.9299 26.0883C22.0123 26.1745 22.1184 26.2221 22.2284 26.2222C22.2662 26.2223 22.3038 26.2167 22.3404 26.2055L23.2152 25.9412C23.2727 25.9238 23.3267 25.8932 23.3742 25.8512C23.4216 25.8091 23.4616 25.7564 23.4919 25.6961C23.5221 25.6357 23.5421 25.5689 23.5505 25.4995C23.559 25.43 23.5558 25.3593 23.5411 25.2913C23.5265 25.2233 23.5006 25.1593 23.4651 25.1031C23.4296 25.047 23.3851 24.9996 23.3341 24.9638C23.2831 24.928 23.2267 24.9044 23.168 24.8944C23.1093 24.8844 23.0496 24.8881 22.9921 24.9055Z" fill="white"/>
<path d="M18.1035 26.2389L17.2286 26.5033C17.122 26.5354 17.0291 26.6125 16.9671 26.7201C16.9052 26.8276 16.8785 26.9583 16.8922 27.0874C16.9058 27.2166 16.9588 27.3355 17.0412 27.4217C17.1236 27.5079 17.2297 27.5555 17.3397 27.5556C17.3775 27.5557 17.4151 27.5501 17.4517 27.5389L18.3266 27.2745C18.384 27.2572 18.438 27.2266 18.4855 27.1846C18.5329 27.1425 18.573 27.0898 18.6032 27.0295C18.6335 26.9691 18.6534 26.9023 18.6618 26.8328C18.6703 26.7634 18.6671 26.6926 18.6524 26.6246C18.6378 26.5566 18.612 26.4927 18.5765 26.4365C18.5409 26.3803 18.4964 26.333 18.4454 26.2971C18.3945 26.2613 18.338 26.2377 18.2793 26.2277C18.2207 26.2177 18.1609 26.2215 18.1035 26.2389Z" fill="white"/>
<path d="M13.356 27.5667L12.6999 27.7431C12.6569 27.7547 12.6164 27.7751 12.5808 27.8031C12.5452 27.8312 12.5152 27.8664 12.4926 27.9066C12.4699 27.9469 12.455 27.9914 12.4487 28.0377C12.4424 28.0841 12.4449 28.1312 12.4559 28.1765C12.4782 28.2681 12.5341 28.3465 12.6114 28.3947C12.6496 28.4185 12.692 28.4342 12.736 28.4408C12.78 28.4475 12.8249 28.4449 12.8679 28.4333L13.524 28.2569C13.611 28.2335 13.6856 28.1746 13.7314 28.0933C13.7771 28.0121 13.7903 27.915 13.7681 27.8234C13.7458 27.7319 13.6899 27.6534 13.6126 27.6053C13.5353 27.5571 13.443 27.5432 13.356 27.5667Z" fill="white"/>
<path d="M20.769 25.789L19.8945 25.9653C19.788 25.9867 19.695 26.0381 19.6331 26.1098C19.5712 26.1815 19.5445 26.2685 19.5582 26.3547C19.5718 26.4408 19.6248 26.52 19.7072 26.5774C19.7895 26.6349 19.8956 26.6666 20.0056 26.6667C20.0433 26.6668 20.0809 26.663 20.1175 26.6556L20.992 26.4794C21.0495 26.4679 21.1036 26.4475 21.1511 26.4195C21.1987 26.3915 21.2387 26.3564 21.2691 26.3161C21.2994 26.2759 21.3194 26.2313 21.3278 26.185C21.3363 26.1386 21.3331 26.0914 21.3185 26.046C21.3038 26.0006 21.278 25.958 21.2424 25.9205C21.2068 25.883 21.1623 25.8515 21.1112 25.8276C21.0602 25.8037 21.0037 25.788 20.945 25.7814C20.8863 25.7748 20.8265 25.7774 20.769 25.789Z" fill="white"/>
<path d="M10.9923 28.0166L10.1171 28.281C10.0106 28.3132 9.91767 28.3903 9.85575 28.4978C9.79384 28.6054 9.76719 28.736 9.78083 28.8651C9.79447 28.9943 9.84744 29.1131 9.92982 29.1993C10.0122 29.2855 10.1183 29.3332 10.2282 29.3333C10.266 29.3334 10.3036 29.3278 10.3402 29.3166L11.2153 29.0522C11.2728 29.0349 11.3267 29.0043 11.3742 28.9623C11.4216 28.9202 11.4616 28.8675 11.4919 28.8072C11.5222 28.7468 11.5421 28.68 11.5505 28.6106C11.559 28.5411 11.5558 28.4703 11.5411 28.4023C11.5265 28.3343 11.5007 28.2704 11.4651 28.2142C11.4296 28.158 11.3851 28.1107 11.3342 28.0749C11.2832 28.039 11.2268 28.0155 11.1681 28.0055C11.1094 27.9955 11.0497 27.9992 10.9923 28.0166Z" fill="white"/>
</svg>
