<svg viewBox="0 0 32 32" fill="none" xmlns="http://www.w3.org/2000/svg">
<path d="M29.8827 5.3335H2.1178L2.11719 5.98526V26.3002V26.9521H29.8827V26.3002V5.98526V5.3335ZM25.9865 26.3002H5.98026V8.92096H25.9865V26.3002ZM29.2281 26.3002H26.6412V8.2679H5.32564V26.3002H2.77168V5.98526H29.2279L29.2281 26.3002Z" fill="white"/>
<path d="M11.2828 18.7172C11.1266 18.5609 10.8734 18.5609 10.7172 18.7172L8.17157 21.2627C8.01536 21.419 8.01536 21.6722 8.17157 21.8284C8.32778 21.9846 8.58105 21.9846 8.73726 21.8284L11 19.5657L13.2627 21.8284C13.419 21.9846 13.6722 21.9846 13.8284 21.8284C13.9846 21.6722 13.9846 21.419 13.8284 21.2627L11.2828 18.7172ZM11.4 25L11.4 19L10.6 19L10.6 25L11.4 25Z" fill="white"/>
<path d="M20.7172 25.2828C20.8734 25.4391 21.1266 25.4391 21.2828 25.2828L23.8284 22.7373C23.9846 22.581 23.9846 22.3278 23.8284 22.1716C23.6722 22.0154 23.419 22.0154 23.2627 22.1716L21 24.4343L18.7373 22.1716C18.581 22.0154 18.3278 22.0154 18.1716 22.1716C18.0154 22.3278 18.0154 22.581 18.1716 22.7373L20.7172 25.2828ZM20.6 19L20.6 25L21.4 25L21.4 19L20.6 19Z" fill="white"/>
<rect x="13.4" y="13.4" width="5.2" height="2.2" stroke="white" stroke-width="0.8"/>
<line x1="6" y1="14.6" x2="13" y2="14.6" stroke="white" stroke-width="0.8"/>
<line x1="6" y1="11.6" x2="26" y2="11.6" stroke="white" stroke-width="0.8"/>
<line x1="6" y1="17.6" x2="26" y2="17.6" stroke="white" stroke-width="0.8"/>
<line x1="6" y1="8.75" x2="26" y2="8.75" stroke="white" stroke-width="0.5"/>
<line x1="19" y1="14.75" x2="26" y2="14.75" stroke="white" stroke-width="0.5"/>
</svg>
