<svg  viewBox="0 0 32 32" fill="none" xmlns="http://www.w3.org/2000/svg">
<path d="M23.7959 15.2165C23.8255 15.187 23.8539 15.187 23.8834 15.1586C25.0766 14.0529 25.3959 12.3074 24.6982 10.8246C24.2618 9.92232 23.505 9.22461 22.5743 8.90414C21.6437 8.55528 20.6255 8.61323 19.6948 9.0496C18.8516 9.4564 18.1823 10.1257 17.8335 10.9985V11.028H7.21411C7.03911 11.028 6.89365 11.1439 6.8357 11.2894L1.77446 25.4281C1.71537 25.544 1.74492 25.6895 1.80287 25.8054C1.89037 25.9213 2.00628 25.9804 2.12333 25.9804H4.65401L5.78809 28.5111C5.84605 28.6565 5.9915 28.744 6.13695 28.744H23.0393C23.1848 28.744 23.3303 28.6565 23.3882 28.5111L24.5223 25.9804H27.053C27.1689 25.9804 27.2859 25.9225 27.3734 25.8054C27.4609 25.6895 27.4609 25.5725 27.4314 25.4565L23.7959 15.2165ZM11.1699 19.5223L11.7813 15.4199H17.3664L17.9778 19.5223H11.1699ZM18.0653 20.278L18.7926 25.1655H10.3266L11.0538 20.278H18.0653ZM6.19593 15.4201H10.9959L10.3846 19.5225H4.71183L6.19593 15.4201ZM16.8141 11.7837L17.2209 14.6349H11.897L12.3038 11.7837H16.8141ZM21.7299 11.7837L22.7481 14.6349H18.006L17.5992 11.7837H21.7299ZM18.1232 15.4201H23.0108L24.4949 19.5225H18.7334L18.1232 15.4201ZM20.0425 9.74735C20.7698 9.39849 21.555 9.36893 22.3119 9.63144C23.0687 9.8928 23.6505 10.4462 23.9994 11.1735C24.5232 12.2792 24.3198 13.5587 23.5051 14.4314L22.371 11.2611C22.313 11.1156 22.1676 10.9997 21.9926 10.9997L18.6756 10.9986C18.9961 10.4463 19.4607 10.0099 20.0425 9.74735ZM7.47556 11.7837H11.4904L11.0836 14.6349H6.45755L7.47556 11.7837ZM4.45068 20.278H10.2689L9.54159 25.1655H2.67556L4.45068 20.278ZM22.8065 27.9292H6.42916L5.52687 25.9508H23.7087L22.8065 27.9292ZM19.578 25.1655L18.8507 20.278H24.7846L26.5301 25.1655H19.578ZM25.6292 9.95069L28.9167 8.40864C29.1201 8.32114 29.3531 8.40864 29.4406 8.58364C29.5281 8.78705 29.4406 9.02001 29.2656 9.10751L25.978 10.6496C25.9201 10.6791 25.8621 10.6791 25.803 10.6791C25.6576 10.6791 25.5121 10.5916 25.4542 10.4462C25.3667 10.2712 25.4246 10.0382 25.6292 9.95069ZM23.8246 8.11887L25.8905 5.15189C26.0064 4.97689 26.269 4.91893 26.4428 5.06439C26.6178 5.1803 26.6758 5.4428 26.5303 5.61665L24.4644 8.58363C24.3769 8.69954 24.261 8.75863 24.1439 8.75863C24.0564 8.75863 23.9985 8.72908 23.911 8.70067C23.7382 8.52568 23.6792 8.29274 23.8246 8.11887ZM21.3235 7.44954L21.6144 3.84285C21.6439 3.63944 21.8178 3.46444 22.0212 3.494C22.2246 3.52355 22.3996 3.6974 22.37 3.9008L22.0791 7.50749C22.0496 7.7109 21.9041 7.85635 21.7007 7.85635H21.6712C21.4689 7.82794 21.2939 7.65294 21.3235 7.44954ZM17.2792 4.83136C17.1918 4.62795 17.2793 4.395 17.4542 4.30749C17.6577 4.21999 17.8906 4.30749 17.9781 4.48249L19.5202 7.77006C19.6077 7.97347 19.5202 8.20642 19.3452 8.29393C19.2872 8.32347 19.2293 8.32347 19.1702 8.32347C19.0247 8.32347 18.8793 8.23597 18.8213 8.09052L17.2792 4.83136ZM30.2544 13.1508C30.2248 13.3542 30.0794 13.4996 29.876 13.4996H29.8464L26.2397 13.2087C26.0363 13.1792 25.8613 13.0053 25.8909 12.8019C25.9204 12.5985 26.0943 12.4235 26.2977 12.4531L29.9044 12.744C30.1089 12.7735 30.2839 12.9474 30.2544 13.1508Z" fill="white"/>
</svg>
