<svg  viewBox="0 0 32 32" fill="none" xmlns="http://www.w3.org/2000/svg">
<path d="M28.3429 10.6967L16.177 4.40809C16.06 4.349 15.9418 4.349 15.8543 4.40809L3.65881 10.6967C3.54176 10.7558 3.45312 10.8728 3.45312 11.0194V29.8843C3.45312 30.09 3.62926 30.2365 3.80539 30.2365H28.1361C28.3418 30.2365 28.4884 30.0604 28.4884 29.8843L28.4895 11.0194C28.5486 10.8728 28.4599 10.7546 28.3429 10.6967ZM24.9043 16.1911H7.06809V15.3093H24.8749V16.1911H24.9043ZM7.06809 16.7786H24.8749V17.6604H7.06809V16.7786ZM24.9043 14.7217H7.06809V14.0161H24.8749V14.7217H24.9043ZM7.06809 18.2479H24.8749V29.5025H23.1113L23.1124 25.2128C23.1124 25.0367 22.9954 24.9185 22.8181 24.9185H20.9374V20.4231C20.9374 20.2469 20.8204 20.1288 20.6431 20.1288H11.3282C11.1521 20.1288 11.0339 20.2458 11.0339 20.4231V24.9185H8.8589C8.68276 24.9185 8.56458 25.0355 8.56458 25.2128V29.5322H7.06573L7.06809 18.2479ZM16.2954 20.716H20.3795V24.9182H16.2954V20.716ZM15.7068 24.9182H11.6227V20.716H15.7068V24.9182ZM13.2091 25.5057V29.5319H9.1544V25.5057H13.2091ZM13.8261 29.5022V25.5057H17.8808V29.5319H13.8261V29.5022ZM18.4693 29.5022V25.5057H22.5534V29.5319H18.4693V29.5022ZM27.8136 29.5022H25.6386V13.634C25.6386 13.4283 25.4625 13.2817 25.2864 13.2817H6.71588C6.5102 13.2817 6.36362 13.4579 6.36362 13.634V29.5022H4.21817V11.2544L16.0011 5.14179L27.8135 11.2544L27.8136 29.5022Z" fill="white"/>
</svg>
