<svg width="32" height="32" viewBox="0 0 32 32" fill="none" xmlns="http://www.w3.org/2000/svg">
<path d="M24.6957 9.1046C24.6957 7.4374 23.3383 6.07996 21.6705 6.07996C20.002 6.07996 18.6445 7.43676 18.6445 9.1046C18.6445 10.7724 20.002 12.1299 21.6705 12.1299C23.3383 12.1292 24.6957 10.7724 24.6957 9.1046ZM19.2845 9.1046C19.2845 7.7894 20.3546 6.71996 21.6705 6.71996C22.9857 6.71996 24.0557 7.7894 24.0557 9.1046C24.0557 10.4198 22.9857 11.4899 21.6705 11.4899C20.3546 11.4892 19.2845 10.4192 19.2845 9.1046Z" fill="#9CA22B"/>
<path d="M21.669 17.7377C21.765 17.7377 21.8559 17.6948 21.9167 17.6205C22.1061 17.3895 26.5528 11.9373 26.5528 9.33254C26.5528 6.64006 24.3621 4.44934 21.669 4.44934C18.9759 4.44934 16.7852 6.64006 16.7852 9.33254C16.7852 11.9373 21.2319 17.3895 21.4213 17.6205C21.4821 17.6941 21.573 17.7377 21.669 17.7377ZM21.669 5.08934C24.0088 5.08934 25.9128 6.99334 25.9128 9.33254C25.9128 11.3818 22.6104 15.7127 21.669 16.905C20.7276 15.7127 17.4252 11.3825 17.4252 9.33254C17.4252 6.99334 19.3292 5.08934 21.669 5.08934Z" fill="#9CA22B"/>
<path d="M28.1948 14.1324C28.0559 13.9455 27.8185 13.8387 27.5427 13.8387H25.3993C25.2668 14.055 25.1324 14.2687 24.9967 14.4787C26.4515 14.4787 27.5382 14.4787 27.5676 14.4787C27.6585 14.4787 27.6745 14.5068 27.6739 14.5081L26.3823 18.8191L19.366 20.6041L14.5129 18.567L17.2751 14.478C17.2751 14.478 17.6879 14.478 18.3414 14.478C18.2057 14.2681 18.0707 14.0543 17.9388 13.838H8.51545C8.05657 13.838 7.62009 14.126 7.50041 14.5087L3.71417 26.6937C3.65273 26.8927 3.68473 27.0975 3.80249 27.2575C3.93945 27.4438 4.17625 27.5507 4.45209 27.5507H23.6233C24.0854 27.5481 24.5212 27.2588 24.6364 26.8774L28.287 14.6924C28.3465 14.4953 28.3126 14.2911 28.1948 14.1324ZM8.11097 14.7001C8.13849 14.6118 8.31385 14.4787 8.51545 14.4787H16.5027L13.8755 18.3667L7.25593 17.4515L8.11097 14.7001ZM7.06393 18.0703L13.7097 18.99V23.4899L5.99449 21.5116L7.06393 18.0703ZM4.38169 26.9107C4.30873 26.9107 4.32409 26.8844 4.32601 26.8838L5.80505 22.1235L13.3833 24.0665L10.3292 26.91C10.3292 26.91 4.45465 26.9107 4.38169 26.9107ZM11.2681 26.9107L14.2473 24.1369C14.3126 24.0761 14.3491 23.991 14.3491 23.9027V19.1929L19.0262 21.1558L19.1862 26.9107H11.2681ZM24.0233 26.6931C23.9971 26.7788 23.823 26.9094 23.6214 26.9107H19.8268L19.6681 21.1878L26.1686 19.534L24.0233 26.6931Z" fill="#9CA22B"/>
</svg>
