<svg width="136" height="59" viewBox="0 0 136 59" fill="none" xmlns="http://www.w3.org/2000/svg">
<path d="M86.96 3.76C87.3547 3.76 87.712 3.85067 88.032 4.032C88.352 4.208 88.6027 4.45867 88.784 4.784C88.9653 5.10933 89.056 5.48 89.056 5.896C89.056 6.31733 88.9653 6.69067 88.784 7.016C88.6027 7.34133 88.352 7.59467 88.032 7.776C87.7173 7.952 87.36 8.04 86.96 8.04C86.6187 8.04 86.3093 7.97067 86.032 7.832C85.76 7.688 85.536 7.48 85.36 7.208V9.552H84.792V3.792H85.336V4.624C85.5067 4.34667 85.7307 4.13333 86.008 3.984C86.2907 3.83467 86.608 3.76 86.96 3.76ZM86.92 7.536C87.2133 7.536 87.48 7.46933 87.72 7.336C87.96 7.19733 88.1467 7.00267 88.28 6.752C88.4187 6.50133 88.488 6.216 88.488 5.896C88.488 5.576 88.4187 5.29333 88.28 5.048C88.1467 4.79733 87.96 4.60267 87.72 4.464C87.48 4.32533 87.2133 4.256 86.92 4.256C86.6213 4.256 86.352 4.32533 86.112 4.464C85.8773 4.60267 85.6907 4.79733 85.552 5.048C85.4187 5.29333 85.352 5.576 85.352 5.896C85.352 6.216 85.4187 6.50133 85.552 6.752C85.6907 7.00267 85.8773 7.19733 86.112 7.336C86.352 7.46933 86.6213 7.536 86.92 7.536ZM91.9339 8.04C91.5285 8.04 91.1632 7.94933 90.8379 7.768C90.5125 7.58133 90.2565 7.32533 90.0699 7C89.8832 6.67467 89.7899 6.30667 89.7899 5.896C89.7899 5.48533 89.8832 5.11733 90.0699 4.792C90.2565 4.46667 90.5125 4.21333 90.8379 4.032C91.1632 3.85067 91.5285 3.76 91.9339 3.76C92.3392 3.76 92.7045 3.85067 93.0299 4.032C93.3552 4.21333 93.6085 4.46667 93.7899 4.792C93.9765 5.11733 94.0699 5.48533 94.0699 5.896C94.0699 6.30667 93.9765 6.67467 93.7899 7C93.6085 7.32533 93.3552 7.58133 93.0299 7.768C92.7045 7.94933 92.3392 8.04 91.9339 8.04ZM91.9339 7.536C92.2325 7.536 92.4992 7.46933 92.7339 7.336C92.9739 7.19733 93.1605 7.00267 93.2939 6.752C93.4272 6.50133 93.4939 6.216 93.4939 5.896C93.4939 5.576 93.4272 5.29067 93.2939 5.04C93.1605 4.78933 92.9739 4.59733 92.7339 4.464C92.4992 4.32533 92.2325 4.256 91.9339 4.256C91.6352 4.256 91.3659 4.32533 91.1259 4.464C90.8912 4.59733 90.7045 4.78933 90.5659 5.04C90.4325 5.29067 90.3659 5.576 90.3659 5.896C90.3659 6.216 90.4325 6.50133 90.5659 6.752C90.7045 7.00267 90.8912 7.19733 91.1259 7.336C91.3659 7.46933 91.6352 7.536 91.9339 7.536ZM101.288 3.792L99.6963 8H99.1603L97.8323 4.552L96.5043 8H95.9683L94.3843 3.792H94.9283L96.2483 7.368L97.6003 3.792H98.0883L99.4323 7.368L100.768 3.792H101.288ZM105.69 6.072H102.17C102.202 6.50933 102.37 6.864 102.674 7.136C102.978 7.40267 103.362 7.536 103.826 7.536C104.088 7.536 104.328 7.49067 104.546 7.4C104.765 7.304 104.954 7.16533 105.114 6.984L105.434 7.352C105.248 7.576 105.013 7.74667 104.73 7.864C104.453 7.98133 104.146 8.04 103.81 8.04C103.378 8.04 102.994 7.94933 102.658 7.768C102.328 7.58133 102.069 7.32533 101.882 7C101.696 6.67467 101.602 6.30667 101.602 5.896C101.602 5.48533 101.69 5.11733 101.866 4.792C102.048 4.46667 102.293 4.21333 102.602 4.032C102.917 3.85067 103.269 3.76 103.658 3.76C104.048 3.76 104.397 3.85067 104.706 4.032C105.016 4.21333 105.258 4.46667 105.434 4.792C105.61 5.112 105.698 5.48 105.698 5.896L105.69 6.072ZM103.658 4.248C103.253 4.248 102.912 4.37867 102.634 4.64C102.362 4.896 102.208 5.232 102.17 5.648H105.154C105.117 5.232 104.96 4.896 104.682 4.64C104.41 4.37867 104.069 4.248 103.658 4.248ZM107.399 4.616C107.532 4.33333 107.729 4.12 107.991 3.976C108.257 3.832 108.585 3.76 108.975 3.76V4.312L108.839 4.304C108.396 4.304 108.049 4.44 107.799 4.712C107.548 4.984 107.423 5.36533 107.423 5.856V8H106.855V3.792H107.399V4.616ZM113.628 6.072H110.108C110.14 6.50933 110.308 6.864 110.612 7.136C110.916 7.40267 111.3 7.536 111.764 7.536C112.025 7.536 112.265 7.49067 112.484 7.4C112.703 7.304 112.892 7.16533 113.052 6.984L113.372 7.352C113.185 7.576 112.951 7.74667 112.668 7.864C112.391 7.98133 112.084 8.04 111.748 8.04C111.316 8.04 110.932 7.94933 110.596 7.768C110.265 7.58133 110.007 7.32533 109.82 7C109.633 6.67467 109.54 6.30667 109.54 5.896C109.54 5.48533 109.628 5.11733 109.804 4.792C109.985 4.46667 110.231 4.21333 110.54 4.032C110.855 3.85067 111.207 3.76 111.596 3.76C111.985 3.76 112.335 3.85067 112.644 4.032C112.953 4.21333 113.196 4.46667 113.372 4.792C113.548 5.112 113.636 5.48 113.636 5.896L113.628 6.072ZM111.596 4.248C111.191 4.248 110.849 4.37867 110.572 4.64C110.3 4.896 110.145 5.232 110.108 5.648H113.092C113.055 5.232 112.897 4.896 112.62 4.64C112.348 4.37867 112.007 4.248 111.596 4.248ZM118.632 2.064V8H118.088V7.168C117.917 7.45067 117.691 7.66667 117.408 7.816C117.131 7.96533 116.816 8.04 116.464 8.04C116.069 8.04 115.712 7.94933 115.392 7.768C115.072 7.58667 114.821 7.33333 114.64 7.008C114.459 6.68267 114.368 6.312 114.368 5.896C114.368 5.48 114.459 5.10933 114.64 4.784C114.821 4.45867 115.072 4.208 115.392 4.032C115.712 3.85067 116.069 3.76 116.464 3.76C116.805 3.76 117.112 3.832 117.384 3.976C117.661 4.11467 117.888 4.32 118.064 4.592V2.064H118.632ZM116.512 7.536C116.805 7.536 117.069 7.46933 117.304 7.336C117.544 7.19733 117.731 7.00267 117.864 6.752C118.003 6.50133 118.072 6.216 118.072 5.896C118.072 5.576 118.003 5.29067 117.864 5.04C117.731 4.78933 117.544 4.59733 117.304 4.464C117.069 4.32533 116.805 4.256 116.512 4.256C116.213 4.256 115.944 4.32533 115.704 4.464C115.469 4.59733 115.283 4.78933 115.144 5.04C115.011 5.29067 114.944 5.576 114.944 5.896C114.944 6.216 115.011 6.50133 115.144 6.752C115.283 7.00267 115.469 7.19733 115.704 7.336C115.944 7.46933 116.213 7.536 116.512 7.536ZM124.476 3.76C124.87 3.76 125.228 3.85067 125.548 4.032C125.868 4.208 126.118 4.45867 126.3 4.784C126.481 5.10933 126.572 5.48 126.572 5.896C126.572 6.312 126.481 6.68267 126.3 7.008C126.118 7.33333 125.868 7.58667 125.548 7.768C125.228 7.94933 124.87 8.04 124.476 8.04C124.124 8.04 123.806 7.96533 123.524 7.816C123.246 7.66667 123.022 7.45067 122.852 7.168V8H122.308V2.064H122.876V4.592C123.052 4.32 123.276 4.11467 123.548 3.976C123.825 3.832 124.134 3.76 124.476 3.76ZM124.436 7.536C124.729 7.536 124.996 7.46933 125.236 7.336C125.476 7.19733 125.662 7.00267 125.796 6.752C125.934 6.50133 126.004 6.216 126.004 5.896C126.004 5.576 125.934 5.29067 125.796 5.04C125.662 4.78933 125.476 4.59733 125.236 4.464C124.996 4.32533 124.729 4.256 124.436 4.256C124.137 4.256 123.868 4.32533 123.628 4.464C123.393 4.59733 123.206 4.78933 123.068 5.04C122.934 5.29067 122.868 5.576 122.868 5.896C122.868 6.216 122.934 6.50133 123.068 6.752C123.206 7.00267 123.393 7.19733 123.628 7.336C123.868 7.46933 124.137 7.536 124.436 7.536ZM131.148 3.792L129.044 8.504C128.874 8.89867 128.676 9.17867 128.452 9.344C128.228 9.50933 127.959 9.592 127.644 9.592C127.442 9.592 127.252 9.56 127.076 9.496C126.9 9.432 126.748 9.336 126.62 9.208L126.884 8.784C127.098 8.99733 127.354 9.104 127.652 9.104C127.844 9.104 128.007 9.05067 128.14 8.944C128.279 8.83733 128.407 8.656 128.524 8.4L128.708 7.992L126.828 3.792H127.42L129.004 7.368L130.588 3.792H131.148Z" fill="white"/>
<path d="M6.68 32.08C7.34667 30.6667 8.33333 29.6 9.64 28.88C10.9733 28.16 12.6133 27.8 14.56 27.8V30.56L13.88 30.52C11.6667 30.52 9.93333 31.2 8.68 32.56C7.42667 33.92 6.8 35.8267 6.8 38.28V49H3.96V27.96H6.68V32.08ZM37.8269 39.36H20.2269C20.3869 41.5467 21.2269 43.32 22.7469 44.68C24.2669 46.0133 26.1869 46.68 28.5069 46.68C29.8135 46.68 31.0135 46.4533 32.1069 46C33.2002 45.52 34.1469 44.8267 34.9469 43.92L36.5469 45.76C35.6135 46.88 34.4402 47.7333 33.0269 48.32C31.6402 48.9067 30.1069 49.2 28.4269 49.2C26.2669 49.2 24.3469 48.7467 22.6669 47.84C21.0135 46.9067 19.7202 45.6267 18.7869 44C17.8535 42.3733 17.3869 40.5333 17.3869 38.48C17.3869 36.4267 17.8269 34.5867 18.7069 32.96C19.6135 31.3333 20.8402 30.0667 22.3869 29.16C23.9602 28.2533 25.7202 27.8 27.6669 27.8C29.6135 27.8 31.3602 28.2533 32.9069 29.16C34.4535 30.0667 35.6669 31.3333 36.5469 32.96C37.4269 34.56 37.8669 36.4 37.8669 38.48L37.8269 39.36ZM27.6669 30.24C25.6402 30.24 23.9335 30.8933 22.5469 32.2C21.1869 33.48 20.4135 35.16 20.2269 37.24H35.1469C34.9602 35.16 34.1735 33.48 32.7869 32.2C31.4269 30.8933 29.7202 30.24 27.6669 30.24ZM54.4875 27.8C56.4608 27.8 58.2475 28.2533 59.8475 29.16C61.4475 30.04 62.7008 31.2933 63.6075 32.92C64.5142 34.5467 64.9675 36.4 64.9675 38.48C64.9675 40.5867 64.5142 42.4533 63.6075 44.08C62.7008 45.7067 61.4475 46.9733 59.8475 47.88C58.2742 48.76 56.4875 49.2 54.4875 49.2C52.7808 49.2 51.2342 48.8533 49.8475 48.16C48.4875 47.44 47.3675 46.4 46.4875 45.04V56.76H43.6475V27.96H46.3675V32.12C47.2208 30.7333 48.3408 29.6667 49.7275 28.92C51.1408 28.1733 52.7275 27.8 54.4875 27.8ZM54.2875 46.68C55.7542 46.68 57.0875 46.3467 58.2875 45.68C59.4875 44.9867 60.4208 44.0133 61.0875 42.76C61.7808 41.5067 62.1275 40.08 62.1275 38.48C62.1275 36.88 61.7808 35.4667 61.0875 34.24C60.4208 32.9867 59.4875 32.0133 58.2875 31.32C57.0875 30.6267 55.7542 30.28 54.2875 30.28C52.7942 30.28 51.4475 30.6267 50.2475 31.32C49.0742 32.0133 48.1408 32.9867 47.4475 34.24C46.7808 35.4667 46.4475 36.88 46.4475 38.48C46.4475 40.08 46.7808 41.5067 47.4475 42.76C48.1408 44.0133 49.0742 44.9867 50.2475 45.68C51.4475 46.3467 52.7942 46.68 54.2875 46.68ZM70.7569 19.32H73.5969V49H70.7569V19.32ZM81.4991 27.96H84.3391V49H81.4991V27.96ZM82.9391 23.36C82.3524 23.36 81.8591 23.16 81.4591 22.76C81.0591 22.36 80.8591 21.88 80.8591 21.32C80.8591 20.7867 81.0591 20.32 81.4591 19.92C81.8591 19.52 82.3524 19.32 82.9391 19.32C83.5257 19.32 84.0191 19.52 84.4191 19.92C84.8191 20.2933 85.0191 20.7467 85.0191 21.28C85.0191 21.8667 84.8191 22.36 84.4191 22.76C84.0191 23.16 83.5257 23.36 82.9391 23.36ZM100.041 38.44L95.0813 43V49H92.2413V19.32H95.0813V39.44L107.641 27.96H111.161L102.161 36.56L112.001 49H108.521L100.041 38.44ZM123.234 27.8C125.981 27.8 128.087 28.4933 129.554 29.88C131.021 31.24 131.754 33.2667 131.754 35.96V49H129.034V45.72C128.394 46.8133 127.447 47.6667 126.194 48.28C124.967 48.8933 123.501 49.2 121.794 49.2C119.447 49.2 117.581 48.64 116.194 47.52C114.807 46.4 114.114 44.92 114.114 43.08C114.114 41.2933 114.754 39.8533 116.034 38.76C117.341 37.6667 119.407 37.12 122.234 37.12H128.914V35.84C128.914 34.0267 128.407 32.6533 127.394 31.72C126.381 30.76 124.901 30.28 122.954 30.28C121.621 30.28 120.341 30.5067 119.114 30.96C117.887 31.3867 116.834 31.9867 115.954 32.76L114.674 30.64C115.741 29.7333 117.021 29.04 118.514 28.56C120.007 28.0533 121.581 27.8 123.234 27.8ZM122.234 46.96C123.834 46.96 125.207 46.6 126.354 45.88C127.501 45.1333 128.354 44.0667 128.914 42.68V39.24H122.314C118.714 39.24 116.914 40.4933 116.914 43C116.914 44.2267 117.381 45.2 118.314 45.92C119.247 46.6133 120.554 46.96 122.234 46.96Z" fill="white"/>
</svg>
